<svg width="32" height="32" xmlns="http://www.w3.org/2000/svg">

 <g>
  <title>background</title>
  <rect fill="none" id="canvas_background" height="402" width="582" y="-1" x="-1"/>
 </g>
 <g>
  <title>Layer 1</title>
  <path stroke="null" id="svg_2" d="m4.384474,16.184559l7.155912,-6.837991c0.71442,-0.683799 0.71442,-1.790902 0,-2.474702c-0.715485,-0.683799 -1.873889,-0.683799 -2.589373,0l-8.421852,8.048885c-0.36626,0.348005 -0.543002,0.806924 -0.536614,1.261772c-0.006388,0.455866 0.170354,0.911732 0.536614,1.260755l8.421852,8.048885c0.713355,0.682782 1.873889,0.682782 2.589373,0c0.716549,-0.683799 0.71442,-1.790902 0,-2.474702l-7.155912,-6.832903l0,0z"/>
  <path stroke="null" id="svg_3" d="m31.417854,14.763842l-8.382437,-8.072009c-0.712136,-0.685764 -1.865119,-0.685764 -2.578315,0c-0.712136,0.683723 -0.712136,1.796048 0,2.47977l7.121363,6.856616l-7.121363,6.858657c-0.712136,0.684743 -0.712136,1.795027 0,2.480791c0.710017,0.685764 1.864059,0.685764 2.578315,0l8.382437,-8.072009c0.362426,-0.349005 0.540461,-0.807201 0.534102,-1.265397c0.003179,-0.459217 -0.174855,-0.917413 -0.534102,-1.266418z"/>
  <path stroke="null" id="svg_4" d="m16.339342,26.184955c-0.177579,1.051926 -1.195485,1.765218 -2.276813,1.592299l0,0c-1.079214,-0.172919 -1.810669,-1.167205 -1.63309,-2.217073l3.369768,-19.972182c0.177579,-1.050897 1.197599,-1.76316 2.275756,-1.59024l0,0c1.079214,0.172919 1.810669,1.164118 1.63309,2.217073l-3.368711,19.970124z"/>
 </g>
</svg>