<svg width="48" height="48" xmlns="http://www.w3.org/2000/svg">

 <g>
  <title>background</title>
  <rect fill="none" id="canvas_background" height="402" width="582" y="-1" x="-1"/>
 </g>
 <g>
  <title>Layer 1</title>
  <path id="svg_2" fill="#00000e" d="m9.259,28.439c-4.842,3.424 -7.572,7.758 -7.572,7.758s2.855,4.21 7.749,7.581c3.148,-1.126 5.413,-4.104 5.413,-7.641c0,-3.603 -2.351,-6.622 -5.59,-7.698zm-1.351,7.671c-1.028,0 -1.863,-0.835 -1.863,-1.861c0,-1.03 0.834,-1.864 1.863,-1.864c1.029,0 1.863,0.834 1.863,1.864c0,1.026 -0.833,1.861 -1.863,1.861z"/>
  <path id="svg_3" fill="#00000e" d="m13.445,26.054c3.247,2.179 5.385,5.879 5.385,10.084c0,4.144 -2.08,7.797 -5.25,9.984c7.018,3.118 16.652,3.155 27.544,-8.298l5.188,3.899l0,-11.174l-5.285,3.976c-11.2,-11.392 -20.719,-11.5 -27.582,-8.471z"/>
  <path id="svg_4" fill="#00000e" d="m43.103,0.096l0,5.368l0,1.229l0,7.2l0,1.204l0,0.501c0,2.661 -2.158,4.816 -4.816,4.816c-2.583,0 -4.672,-2.036 -4.794,-4.591l-0.016,0l0,-0.163c0,-0.021 -0.007,-0.042 -0.007,-0.062l3.226,0l-6.409,-8.027l0,7.728l0.003,0c-0.017,0.099 -0.03,0.198 -0.03,0.299c0,4.433 3.595,8.027 8.027,8.027s8.026,-3.594 8.026,-8.027l0,-8.905l0,-1.229l0,-5.368l-3.21,0z"/>
 </g>
</svg>