<svg width="32" height="32" xmlns="http://www.w3.org/2000/svg">
 <title/>
 <desc/>

 <g>
  <title>background</title>
  <rect fill="none" id="canvas_background" height="402" width="582" y="-1" x="-1"/>
 </g>
 <g>
  <title>Layer 1</title>
  <path stroke="null" id="hockey-sticks" d="m21.35782,9.56956l-8.95031,20.62962c-0.34772,0.80146 -1.29001,1.48165 -2.08834,1.48165l-8.70748,0c-0.78868,0 -1.44551,-0.74239 -1.44551,-1.65817l0,-1.66334c0,-0.9234 0.64312,-1.65817 1.43645,-1.65817l7.26242,0l8.51984,-19.44921l3.97293,2.31762l0,0zm0.645,-1.48666l2.00929,-4.6312c0.3951,-0.91069 0.07975,-2.01546 -0.71292,-2.47251l-1.09965,-0.63408c-0.78884,-0.45486 -1.74678,-0.09661 -2.13744,0.79522l-2.02725,4.62783l3.96797,2.31474l0,0zm-9.15123,6.1701l-2.02169,-4.6598l3.973,-2.31767l0.54877,1.25273l-2.50008,5.72474l0,0zm3.97387,9.15941l2.94449,6.78677c0.34773,0.80146 1.29001,1.48165 2.08833,1.48165l8.70749,0c0.78869,0 1.4455,-0.74239 1.4455,-1.65817l0,-1.66334c0,-0.9234 -0.6431,-1.65817 -1.43644,-1.65817l-7.26243,0l-3.96764,-9.05742l-2.5193,5.76868l0,0l0,0zm-6.64057,-15.30587l-2.01953,-4.65484c-0.39512,-0.91069 -0.07977,-2.01546 0.7129,-2.47251l1.09967,-0.63408c0.78883,-0.45486 1.74676,-0.09661 2.13743,0.79522l2.03758,4.65142l-3.96805,2.31479l0,0l0,0z"/>
 </g>
</svg>